<svg width="46" height="40" viewBox="0 0 46 40" fill="none" xmlns="http://www.w3.org/2000/svg">
<path d="M18.6119 38.7078C13.6901 38.7078 3.56173 38.7078 2.42318 38.7078C1.28464 38.7078 1 37.4625 1 36.8399V11.7562M21.5472 38.7078H29.6416C29.7527 38.6633 29.9382 38.5696 30.1753 38.4211M39.4259 6.06348C39.4259 5.58909 39.1235 4.6403 37.9138 4.6403C36.7041 4.6403 13.5715 4.6403 2.15634 4.6403C1.77089 4.6403 1 4.9783 1 6.33033V11.7562M39.4259 6.06348V11.7562M39.4259 6.06348L42.7171 22.4301M30.1753 38.4211C30.5704 38.1736 31.1092 37.7738 31.6874 37.1957C31.7916 37.0914 31.9428 36.938 32.1321 36.7445M30.1753 38.4211V30.8803C30.1753 30.3466 30.5133 29.2792 31.8653 29.2792C33.2173 29.2792 37.4121 29.2792 39.3405 29.2792M39.3405 29.2792C39.3693 29.2491 39.3978 29.2195 39.4259 29.1902V11.7562M39.3405 29.2792C37.3683 31.3311 33.6013 35.2432 32.1321 36.7445M32.1321 36.7445H43.2508C43.9623 36.7763 45.2966 36.3417 44.9408 34.3493C44.585 32.3568 43.6658 27.5892 43.2508 25.4544M1 11.7562H39.4259M8.56066 1.61603V8.28721M14.4313 1.61603V8.28721M20.213 1.61603V8.28721M25.9947 1.61603V8.28721M31.8653 1.61603V8.28721M8.02697 17.0932L11.1402 20.2064M11.1402 17.0932L8.02697 20.2064M8.02697 23.8533L11.1402 26.8776M11.1402 23.8533L8.02697 26.8776M8.02697 30.4355L11.1402 33.3708M11.1402 30.4355L8.02697 33.3708" stroke="#353535" stroke-opacity="0.2" stroke-width="2" stroke-linecap="round" stroke-linejoin="round"/>
<circle cx="16.5686" cy="18.6035" r="1.49057" stroke="#353535" stroke-opacity="0.2" stroke-width="2"/>
<circle cx="16.5686" cy="25.3654" r="1.49057" stroke="#353535" stroke-opacity="0.2" stroke-width="2"/>
<circle cx="16.5686" cy="32.1273" r="1.49057" stroke="#353535" stroke-opacity="0.2" stroke-width="2"/>
<circle cx="23.6806" cy="18.6035" r="1.49057" stroke="#353535" stroke-opacity="0.2" stroke-width="2"/>
<circle cx="23.6806" cy="25.3654" r="1.49057" stroke="#353535" stroke-opacity="0.2" stroke-width="2"/>
<circle cx="23.6806" cy="32.1273" r="1.49057" stroke="#353535" stroke-opacity="0.2" stroke-width="2"/>
<circle cx="30.7999" cy="18.6035" r="1.49057" stroke="#353535" stroke-opacity="0.2" stroke-width="2"/>
<circle cx="30.7999" cy="25.3654" r="1.49057" stroke="#353535" stroke-opacity="0.2" stroke-width="2"/>
</svg>
