<svg width="46" height="51" viewBox="0 0 46 51" fill="none" xmlns="http://www.w3.org/2000/svg">
<path d="M34.6248 12.7874V5.40587C34.6248 4.14238 33.6672 1.61538 29.8368 1.61538C26.0064 1.61538 13.1453 1.61538 7.19361 1.61538C6.17618 1.54521 4.62753 1.76009 3.40309 2.65843M3.40309 2.65843C2.30665 3.46286 1.47017 4.81531 1.50787 7.00187C1.58767 11.6303 1.54112 30.2768 1.50787 39.0215C1.44137 39.7198 1.76722 41.4355 3.60261 42.7123C5.43801 43.9891 12.0813 47.8328 15.1736 49.595C17.0023 50.1603 20.6598 50.1536 20.6598 45.605C20.6598 44.6879 20.6598 43.266 20.6598 41.5153M3.40309 2.65843C7.49283 4.97074 16.1711 9.91455 18.1661 11.1913C20.1611 12.4681 20.6598 15.0483 20.6598 16.1788C20.6598 22.4967 20.6598 34.5834 20.6598 41.5153M20.6598 41.5153H30.535C31.8983 41.5153 34.6248 40.5976 34.6248 36.9268C34.6248 33.256 34.6248 31.3408 34.6248 30.8421M25.1485 21.3658H44.5M44.5 21.3658L38.7145 16.1788M44.5 21.3658L38.7145 26.9518" stroke="black" stroke-opacity="0.2" stroke-width="2" stroke-linecap="round" stroke-linejoin="round"/>
</svg>
