<svg width="48" height="45" viewBox="0 0 48 45" fill="none" xmlns="http://www.w3.org/2000/svg">
<path d="M38.0521 43.9567C38.1787 43.9725 38.3269 43.9748 38.4856 43.9567H38.0521Z" fill="#353535" fill-opacity="0.2"/>
<path d="M6.37255 3.1994V7.83091V10.5172C6.37255 11.7029 7.29886 11.8758 7.76201 11.814H9.8925C10.7818 11.814 11.0041 10.9495 11.0041 10.5172V3.1994C11.0041 2.01373 10.263 1.71732 9.8925 1.71732H7.76201C6.65044 1.71732 6.37255 2.70537 6.37255 3.1994Z" fill="#353535" fill-opacity="0.2"/>
<path d="M18.3219 3.1994V7.83091V10.5172C18.3219 11.5547 19.1246 11.814 19.526 11.814H21.7492C22.6384 11.814 22.8607 10.9495 22.8607 10.5172V3.1994C22.8607 1.93963 22.1197 1.68644 21.7492 1.71732H19.526C18.5627 1.71732 18.3219 2.70537 18.3219 3.1994Z" fill="#353535" fill-opacity="0.2"/>
<path d="M30.2712 3.1994V7.83091V10.5172C30.2712 11.5547 31.1357 11.814 31.568 11.814H33.5132C34.6248 11.814 34.8409 10.9495 34.81 10.5172V3.1994C34.81 1.86554 33.9455 1.65557 33.5132 1.71732H31.568C30.4564 1.71732 30.2403 2.70537 30.2712 3.1994Z" fill="#353535" fill-opacity="0.2"/>
<path d="M19.0629 43.9567C14.524 43.9567 5.00163 43.9567 3.22313 43.9567C1.44462 43.9567 1 42.2276 1 41.363V15.8897M22.1197 43.9567H38.0521M38.0521 43.9567C38.7931 44.0493 40.2752 43.6788 40.2752 41.4557C40.2752 39.2325 40.2752 33.86 40.2752 31.4516M38.0521 43.9567H44.8141C45.7713 43.9258 47.5189 43.123 46.852 40.1588C46.185 37.1947 42.1896 18.8539 40.2752 10.054M40.2752 28.3948V15.8897M40.2752 10.054C40.2443 9.31299 39.775 7.83091 38.1447 7.83091C36.5144 7.83091 35.6746 7.83091 35.4584 7.83091M40.2752 10.054V15.8897M29.5301 7.83091H23.6018M17.8587 7.83091H11.5598M6.00203 7.83091H2.8526C2.23507 7.92354 1 8.49785 1 10.054V15.8897M1 15.8897H40.2752M6.37255 7.83091V3.1994C6.37255 2.70537 6.65044 1.71732 7.76201 1.71732C8.87357 1.71732 9.64549 1.71732 9.8925 1.71732C10.263 1.71732 11.0041 2.01373 11.0041 3.1994C11.0041 4.38507 11.0041 8.57195 11.0041 10.5172C11.0041 10.9495 10.7818 11.814 9.8925 11.814C9.00325 11.814 8.10165 11.814 7.76201 11.814C7.29886 11.8758 6.37255 11.7029 6.37255 10.5172C6.37255 9.33152 6.37255 8.23231 6.37255 7.83091ZM18.3219 7.83091V3.1994C18.3219 2.70537 18.5627 1.71732 19.526 1.71732C20.4894 1.71732 21.4095 1.71732 21.7492 1.71732C22.1197 1.68644 22.8607 1.93963 22.8607 3.1994C22.8607 4.45917 22.8607 8.60283 22.8607 10.5172C22.8607 10.9495 22.6384 11.814 21.7492 11.814C20.8599 11.814 19.8966 11.814 19.526 11.814C19.1246 11.814 18.3219 11.5547 18.3219 10.5172C18.3219 9.47971 18.3219 8.29405 18.3219 7.83091ZM30.2712 7.83091V3.1994C30.2403 2.70537 30.4564 1.71732 31.568 1.71732C32.6795 1.71732 33.3279 1.71732 33.5132 1.71732C33.9455 1.65557 34.81 1.86554 34.81 3.1994C34.81 4.53326 34.81 8.6337 34.81 10.5172C34.8409 10.9495 34.6248 11.814 33.5132 11.814C32.4016 11.814 31.7532 11.814 31.568 11.814C31.1357 11.814 30.2712 11.5547 30.2712 10.5172C30.2712 9.47971 30.2712 8.29405 30.2712 7.83091Z" stroke="#353535" stroke-opacity="0.2" stroke-width="2" stroke-linecap="round" stroke-linejoin="round"/>
<path d="M21.8917 25.7492V29.0075V32.2659" stroke="#353535" stroke-opacity="0.2" stroke-width="3" stroke-linecap="round"/>
<path d="M18.6337 29.0075H21.892H25.1503" stroke="#353535" stroke-opacity="0.2" stroke-width="3" stroke-linecap="round"/>
<path d="M31.2143 28.973C31.2143 34.1408 27.025 38.3302 21.8572 38.3302C16.6893 38.3302 12.5 34.1408 12.5 28.973C12.5 23.8052 16.6893 19.6159 21.8572 19.6159C27.025 19.6159 31.2143 23.8052 31.2143 28.973ZM14.1843 28.973C14.1843 33.2106 17.6196 36.6459 21.8572 36.6459C26.0948 36.6459 29.53 33.2106 29.53 28.973C29.53 24.7354 26.0948 21.3002 21.8572 21.3002C17.6196 21.3002 14.1843 24.7354 14.1843 28.973Z" fill="#353535" fill-opacity="0.2"/>
</svg>
