<svg width="46" height="48" viewBox="0 0 46 48" fill="none" xmlns="http://www.w3.org/2000/svg">
<path d="M0 46.616H2.668M46 46.616H43.608M43.608 46.616V16.9H35.604V46.616M43.608 46.616H35.604M35.604 46.616H32.384M32.384 46.616V28.032H24.748V46.616M32.384 46.616H24.748M24.748 46.616H21.436M21.436 46.616V20.212H13.708V46.616M21.436 46.616H13.708M13.708 46.616H10.396M10.396 46.616V31.344H2.668V46.616M10.396 46.616H2.668" stroke="#353535" stroke-opacity="0.2" stroke-width="2"/>
<circle cx="6.53234" cy="18.4641" r="2.312" stroke="#353535" stroke-opacity="0.2" stroke-width="2"/>
<circle cx="39.4665" cy="4.11205" r="2.312" stroke="#353535" stroke-opacity="0.2" stroke-width="2"/>
<path d="M15.0862 9.63209L8.8302 16.0721M20.2382 9.26409L25.7582 13.4961M30.9102 12.8521L37.1662 6.50409" stroke="#353535" stroke-opacity="0.2" stroke-width="2"/>
<circle cx="28.6114" cy="15.152" r="2.312" stroke="#353535" stroke-opacity="0.2" stroke-width="2"/>
<circle cx="17.5719" cy="7.42399" r="2.312" stroke="#353535" stroke-opacity="0.2" stroke-width="2"/>
</svg>
