<svg width="46" height="51" viewBox="0 0 46 51" fill="none" xmlns="http://www.w3.org/2000/svg">
<path d="M34.6248 12.3377V4.9562C34.6248 3.6927 33.6672 1.16571 29.8368 1.16571C26.0064 1.16571 13.1453 1.16571 7.19361 1.16571C6.17618 1.09554 4.62753 1.31042 3.40309 2.20875M3.40309 2.20875C2.30665 3.01318 1.47017 4.36564 1.50787 6.55219C1.58767 11.1806 1.54112 29.8271 1.50787 38.5719C1.44137 39.2701 1.76722 40.9858 3.60261 42.2626C5.43801 43.5394 12.0813 47.3831 15.1736 49.1453C17.0023 49.7106 20.6598 49.7039 20.6598 45.1553C20.6598 44.2382 20.6598 42.8163 20.6598 41.0656M3.40309 2.20875C7.49283 4.52106 16.1711 9.46487 18.1661 10.7417C20.1611 12.0185 20.6598 14.5987 20.6598 15.7292C20.6598 22.047 20.6598 34.1337 20.6598 41.0656M20.6598 41.0656H30.535C31.8983 41.0656 34.6248 40.1479 34.6248 36.4771C34.6248 32.8063 34.6248 30.8911 34.6248 30.3924M25.1485 20.9161H44.5M44.5 20.9161L38.7145 15.7292M44.5 20.9161L38.7145 26.5021" stroke="#353535" stroke-width="2" stroke-linecap="round" stroke-linejoin="round"/>
</svg>
