<svg width="48" height="46" viewBox="0 0 48 46" fill="none" xmlns="http://www.w3.org/2000/svg">
<path d="M19.4351 33.8581L16.4709 30.0603C16.0078 28.8561 16.1454 28.1277 17.0267 27.4666C17.7677 26.9109 18.8176 27.127 19.2499 27.4666L20.8245 29.2266L21.4729 28.5782C22.955 26.9109 25.9192 23.3168 26.2897 23.0204C26.7528 22.6499 27.216 22.372 27.6792 22.372C28.1423 22.372 28.9945 22.4646 29.4391 23.2057C29.8838 23.9467 29.717 25.0523 29.2539 25.614C27.3704 27.8989 23.3441 32.7466 22.3067 33.8581C21.2692 34.9697 19.96 34.3213 19.4351 33.8581Z" stroke="#353535" stroke-width="2" stroke-linecap="round" stroke-linejoin="round"/>
<path d="M19.0629 44.1407C14.524 44.1407 5.00163 44.1407 3.22313 44.1407C1.44462 44.1407 1 42.4116 1 41.547V16.0737M22.1197 44.1407H38.0521M38.0521 44.1407C38.7931 44.2333 40.2752 43.8628 40.2752 41.6397C40.2752 39.4165 40.2752 34.044 40.2752 31.6356M38.0521 44.1407H44.8141C45.7713 44.1098 47.5189 43.307 46.852 40.3428C46.185 37.3787 42.1896 19.0379 40.2752 10.238M40.2752 28.5788V16.0737M40.2752 10.238C40.2443 9.49698 39.775 8.0149 38.1447 8.0149C36.5144 8.0149 35.6746 8.0149 35.4584 8.0149M40.2752 10.238V16.0737M29.5301 8.0149H23.6018M17.8587 8.0149H11.5598M6.00203 8.0149H2.8526C2.23507 8.10753 1 8.68184 1 10.238V16.0737M1 16.0737H40.2752M6.37255 8.0149V3.38339C6.37255 2.88936 6.65044 1.90131 7.76201 1.90131C8.87357 1.90131 9.64549 1.90131 9.8925 1.90131C10.263 1.90131 11.0041 2.19772 11.0041 3.38339C11.0041 4.56906 11.0041 8.75594 11.0041 10.7012C11.0041 11.1335 10.7818 11.998 9.8925 11.998C9.00325 11.998 8.10165 11.998 7.76201 11.998C7.29886 12.0598 6.37255 11.8868 6.37255 10.7012C6.37255 9.51551 6.37255 8.4163 6.37255 8.0149ZM18.3219 8.0149V3.38339C18.3219 2.88936 18.5627 1.90131 19.526 1.90131C20.4894 1.90131 21.4095 1.90131 21.7492 1.90131C22.1197 1.87043 22.8607 2.12362 22.8607 3.38339C22.8607 4.64316 22.8607 8.78682 22.8607 10.7012C22.8607 11.1335 22.6384 11.998 21.7492 11.998C20.8599 11.998 19.8966 11.998 19.526 11.998C19.1246 11.998 18.3219 11.7386 18.3219 10.7012C18.3219 9.66371 18.3219 8.47805 18.3219 8.0149ZM30.2712 8.0149V3.38339C30.2403 2.88936 30.4564 1.90131 31.568 1.90131C32.6795 1.90131 33.3279 1.90131 33.5132 1.90131C33.9455 1.83956 34.81 2.04953 34.81 3.38339C34.81 4.71725 34.81 8.81769 34.81 10.7012C34.8409 11.1335 34.6248 11.998 33.5132 11.998C32.4016 11.998 31.7532 11.998 31.568 11.998C31.1357 11.998 30.2712 11.7387 30.2712 10.7012C30.2712 9.6637 30.2712 8.47804 30.2712 8.0149Z" stroke="#353535" stroke-width="2" stroke-linecap="round" stroke-linejoin="round"/>
<mask id="path-3-inside-1_447_1491" fill="white">
<path d="M29.6206 28.0064C30.0442 30.0841 29.7494 32.2441 28.7845 34.1323C27.8196 36.0206 26.2419 37.525 24.3099 38.399C22.3779 39.2731 20.2064 39.4649 18.1511 38.9431C16.0959 38.4212 14.2788 37.2167 12.9979 35.5268C11.7169 33.837 11.048 31.7621 11.1008 29.6423C11.1536 27.5225 11.9249 25.4835 13.2884 23.8595C14.6519 22.2355 16.5266 21.1228 18.6053 20.7039C20.6839 20.285 22.8433 20.5846 24.7293 21.5538L24.0002 22.9728C22.4357 22.169 20.6446 21.9204 18.9204 22.2679C17.1962 22.6154 15.6412 23.5383 14.5103 24.8853C13.3793 26.2324 12.7395 27.9237 12.6958 29.682C12.652 31.4403 13.2068 33.1614 14.2693 34.563C15.3318 35.9647 16.839 36.9638 18.5438 37.3967C20.2485 37.8295 22.0498 37.6704 23.6523 36.9454C25.2548 36.2204 26.5634 34.9726 27.3638 33.4064C28.1641 31.8401 28.4087 30.0485 28.0574 28.3251L29.6206 28.0064Z"/>
</mask>
<path d="M29.6206 28.0064C30.0442 30.0841 29.7494 32.2441 28.7845 34.1323C27.8196 36.0206 26.2419 37.525 24.3099 38.399C22.3779 39.2731 20.2064 39.4649 18.1511 38.9431C16.0959 38.4212 14.2788 37.2167 12.9979 35.5268C11.7169 33.837 11.048 31.7621 11.1008 29.6423C11.1536 27.5225 11.9249 25.4835 13.2884 23.8595C14.6519 22.2355 16.5266 21.1228 18.6053 20.7039C20.6839 20.285 22.8433 20.5846 24.7293 21.5538L24.0002 22.9728C22.4357 22.169 20.6446 21.9204 18.9204 22.2679C17.1962 22.6154 15.6412 23.5383 14.5103 24.8853C13.3793 26.2324 12.7395 27.9237 12.6958 29.682C12.652 31.4403 13.2068 33.1614 14.2693 34.563C15.3318 35.9647 16.839 36.9638 18.5438 37.3967C20.2485 37.8295 22.0498 37.6704 23.6523 36.9454C25.2548 36.2204 26.5634 34.9726 27.3638 33.4064C28.1641 31.8401 28.4087 30.0485 28.0574 28.3251L29.6206 28.0064Z" stroke="#353535" stroke-width="52" stroke-linejoin="round" mask="url(#path-3-inside-1_447_1491)"/>
</svg>
