<svg width="46" height="40" viewBox="0 0 46 40" fill="none" xmlns="http://www.w3.org/2000/svg">
<path d="M18.6119 38.8918C13.6901 38.8918 3.56173 38.8918 2.42318 38.8918C1.28464 38.8918 1 37.6465 1 37.0238V11.9402M21.5472 38.8918H29.6416C29.7527 38.8473 29.9382 38.7536 30.1753 38.6051M39.4259 6.24744C39.4259 5.77305 39.1235 4.82426 37.9138 4.82426C36.7041 4.82426 13.5715 4.82426 2.15634 4.82426C1.77089 4.82426 1 5.16226 1 6.51429V11.9402M39.4259 6.24744V11.9402M39.4259 6.24744L42.7171 22.6141M30.1753 38.6051C30.5704 38.3576 31.1092 37.9578 31.6874 37.3796C31.7916 37.2754 31.9428 37.1219 32.1321 36.9285M30.1753 38.6051V31.0642C30.1753 30.5305 30.5133 29.4632 31.8653 29.4632C33.2173 29.4632 37.4121 29.4632 39.3405 29.4632M39.3405 29.4632C39.3693 29.4331 39.3978 29.4034 39.4259 29.3742V11.9402M39.3405 29.4632C37.3683 31.5151 33.6013 35.4272 32.1321 36.9285M32.1321 36.9285H43.2508C43.9623 36.9603 45.2966 36.5257 44.9408 34.5332C44.585 32.5408 43.6658 27.7731 43.2508 25.6383M1 11.9402H39.4259M8.56066 1.79999V8.47117M14.4313 1.79999V8.47117M20.213 1.79999V8.47117M25.9947 1.79999V8.47117M31.8653 1.79999V8.47117M8.02697 17.2771L11.1402 20.3903M11.1402 17.2771L8.02697 20.3903M8.02697 24.0373L11.1402 27.0615M11.1402 24.0373L8.02697 27.0615M8.02697 30.6195L11.1402 33.5548M11.1402 30.6195L8.02697 33.5548" stroke="#353535" stroke-width="2" stroke-linecap="round" stroke-linejoin="round"/>
<circle cx="16.5687" cy="18.7874" r="1.49057" stroke="#353535" stroke-width="2"/>
<circle cx="16.5687" cy="25.5493" r="1.49057" stroke="#353535" stroke-width="2"/>
<circle cx="16.5687" cy="32.3113" r="1.49057" stroke="#353535" stroke-width="2"/>
<circle cx="23.6806" cy="18.7874" r="1.49057" stroke="#353535" stroke-width="2"/>
<circle cx="23.6806" cy="25.5493" r="1.49057" stroke="#353535" stroke-width="2"/>
<circle cx="23.6806" cy="32.3113" r="1.49057" stroke="#353535" stroke-width="2"/>
<circle cx="30.7997" cy="18.7874" r="1.49057" stroke="#353535" stroke-width="2"/>
<circle cx="30.7997" cy="25.5493" r="1.49057" stroke="#353535" stroke-width="2"/>
</svg>
